<svg width="66" height="42" viewBox="0 0 66 42" fill="none" xmlns="http://www.w3.org/2000/svg">
<path d="M0.568 41.668V0.987998H20.476V41.668H0.568ZM18.568 27.448C18.568 25.672 18.136 24.34 17.272 23.452C16.432 22.54 15.412 21.904 14.212 21.544C13.036 21.16 11.92 20.848 10.864 20.608C9.544 20.296 8.344 19.888 7.264 19.384C6.184 18.88 5.644 17.896 5.644 16.432C5.644 15.184 6.088 14.236 6.976 13.588C7.888 12.916 9.076 12.58 10.54 12.58C11.236 12.58 11.968 12.652 12.736 12.796C13.504 12.916 14.26 13.168 15.004 13.552L15.364 17.044L17.524 16.828L17.308 12.184C16.564 11.608 15.532 11.14 14.212 10.78C12.892 10.42 11.584 10.24 10.288 10.24C8.272 10.24 6.52 10.768 5.032 11.824C3.568 12.88 2.836 14.512 2.836 16.72C2.836 18.256 3.196 19.432 3.916 20.248C4.636 21.04 5.536 21.628 6.616 22.012C7.696 22.372 8.788 22.672 9.892 22.912C11.332 23.248 12.664 23.692 13.888 24.244C15.112 24.772 15.724 25.924 15.724 27.7C15.724 29.284 15.16 30.412 14.032 31.084C12.928 31.732 11.608 32.056 10.072 32.056C9.208 32.056 8.38 31.984 7.588 31.84C6.796 31.696 6.004 31.42 5.212 31.012L5.356 28.06L3.196 27.844L2.692 32.452C4.444 33.724 6.952 34.36 10.216 34.36C12.592 34.36 14.572 33.772 16.156 32.596C17.764 31.42 18.568 29.704 18.568 27.448ZM19.6227 0.987998H46.6587V41.668H19.6227V0.987998ZM35.3547 23.236H38.8827C38.5707 24.316 38.1027 25.408 37.4787 26.512C36.8547 27.616 36.1107 28.588 35.2467 29.428C32.7747 27.58 30.7947 25.276 29.3067 22.516C31.2987 21.532 33.1107 20.512 34.7427 19.456C36.3747 18.376 37.1907 16.924 37.1907 15.1C37.1907 13.636 36.6507 12.46 35.5707 11.572C34.4907 10.684 33.1107 10.24 31.4307 10.24C29.3907 10.24 27.7947 10.864 26.6427 12.112C25.5147 13.336 24.9507 14.884 24.9507 16.756C24.9507 18.412 25.4067 20.272 26.3187 22.336C25.0707 23.008 23.9787 23.812 23.0427 24.748C22.1307 25.66 21.6747 26.896 21.6747 28.456C21.6747 30.4 22.3707 31.876 23.7627 32.884C25.1787 33.868 26.7627 34.36 28.5147 34.36C29.6427 34.36 30.7227 34.168 31.7547 33.784C32.8107 33.376 33.7947 32.848 34.7067 32.2C35.7387 32.872 36.8067 33.4 37.9107 33.784C39.0387 34.168 40.1547 34.36 41.2587 34.36C42.6507 34.36 43.9467 34.024 45.1467 33.352L44.5347 31.156C43.5987 31.66 42.6267 31.912 41.6187 31.912C40.8267 31.912 40.0227 31.78 39.2067 31.516C38.4147 31.252 37.6347 30.892 36.8667 30.436C37.9947 29.332 38.9547 28.144 39.7467 26.872C40.5627 25.576 41.1987 24.364 41.6547 23.236H45.4347V20.968H35.3547V23.236ZM27.5427 16.54C27.5427 15.34 27.8667 14.344 28.5147 13.552C29.1867 12.736 30.1347 12.328 31.3587 12.328C32.4627 12.328 33.2667 12.64 33.7707 13.264C34.2987 13.864 34.5627 14.512 34.5627 15.208C34.5627 16.504 33.9507 17.62 32.7267 18.556C31.5027 19.468 30.1347 20.32 28.6227 21.112C27.9027 19.456 27.5427 17.932 27.5427 16.54ZM29.1627 32.128C27.8427 32.128 26.6907 31.804 25.7067 31.156C24.7467 30.508 24.2667 29.476 24.2667 28.06C24.2667 27.076 24.5187 26.248 25.0227 25.576C25.5267 24.88 26.1867 24.268 27.0027 23.74C27.7467 25.084 28.6347 26.392 29.6667 27.664C30.6987 28.912 31.8147 30.016 33.0147 30.976C31.7907 31.744 30.5067 32.128 29.1627 32.128ZM45.7789 41.668V0.987998H65.6869V41.668H45.7789ZM63.7789 27.448C63.7789 25.672 63.3469 24.34 62.4829 23.452C61.6429 22.54 60.6229 21.904 59.4229 21.544C58.2469 21.16 57.1309 20.848 56.0749 20.608C54.7549 20.296 53.5549 19.888 52.4749 19.384C51.3949 18.88 50.8549 17.896 50.8549 16.432C50.8549 15.184 51.2989 14.236 52.1869 13.588C53.0989 12.916 54.2869 12.58 55.7509 12.58C56.4469 12.58 57.1789 12.652 57.9469 12.796C58.7149 12.916 59.4709 13.168 60.2149 13.552L60.5749 17.044L62.7349 16.828L62.5189 12.184C61.7749 11.608 60.7429 11.14 59.4229 10.78C58.1029 10.42 56.7949 10.24 55.4989 10.24C53.4829 10.24 51.7309 10.768 50.2429 11.824C48.7789 12.88 48.0469 14.512 48.0469 16.72C48.0469 18.256 48.4069 19.432 49.1269 20.248C49.8469 21.04 50.7469 21.628 51.8269 22.012C52.9069 22.372 53.9989 22.672 55.1029 22.912C56.5429 23.248 57.8749 23.692 59.0989 24.244C60.3229 24.772 60.9349 25.924 60.9349 27.7C60.9349 29.284 60.3709 30.412 59.2429 31.084C58.1389 31.732 56.8189 32.056 55.2829 32.056C54.4189 32.056 53.5909 31.984 52.7989 31.84C52.0069 31.696 51.2149 31.42 50.4229 31.012L50.5669 28.06L48.4069 27.844L47.9029 32.452C49.6549 33.724 52.1629 34.36 55.4269 34.36C57.8029 34.36 59.7829 33.772 61.3669 32.596C62.9749 31.42 63.7789 29.704 63.7789 27.448Z" fill="#343434"/>
</svg>
