<svg width="179" height="42" viewBox="0 0 179 42" fill="none" xmlns="http://www.w3.org/2000/svg">
<path d="M0.568 41.668V0.987998H20.476V41.668H0.568ZM18.568 27.448C18.568 25.672 18.136 24.34 17.272 23.452C16.432 22.54 15.412 21.904 14.212 21.544C13.036 21.16 11.92 20.848 10.864 20.608C9.544 20.296 8.344 19.888 7.264 19.384C6.184 18.88 5.644 17.896 5.644 16.432C5.644 15.184 6.088 14.236 6.976 13.588C7.888 12.916 9.076 12.58 10.54 12.58C11.236 12.58 11.968 12.652 12.736 12.796C13.504 12.916 14.26 13.168 15.004 13.552L15.364 17.044L17.524 16.828L17.308 12.184C16.564 11.608 15.532 11.14 14.212 10.78C12.892 10.42 11.584 10.24 10.288 10.24C8.272 10.24 6.52 10.768 5.032 11.824C3.568 12.88 2.836 14.512 2.836 16.72C2.836 18.256 3.196 19.432 3.916 20.248C4.636 21.04 5.536 21.628 6.616 22.012C7.696 22.372 8.788 22.672 9.892 22.912C11.332 23.248 12.664 23.692 13.888 24.244C15.112 24.772 15.724 25.924 15.724 27.7C15.724 29.284 15.16 30.412 14.032 31.084C12.928 31.732 11.608 32.056 10.072 32.056C9.208 32.056 8.38 31.984 7.588 31.84C6.796 31.696 6.004 31.42 5.212 31.012L5.356 28.06L3.196 27.844L2.692 32.452C4.444 33.724 6.952 34.36 10.216 34.36C12.592 34.36 14.572 33.772 16.156 32.596C17.764 31.42 18.568 29.704 18.568 27.448ZM19.6227 41.668V0.987998H33.6987V41.668H19.6227ZM32.7627 29.68L30.8187 29.068C30.5787 30.364 30.2307 31.204 29.7747 31.588C29.3427 31.972 28.8267 32.164 28.2267 32.164C27.2427 32.164 26.5587 31.876 26.1747 31.3C25.8147 30.7 25.6347 29.92 25.6347 28.96V19.996H31.8987V17.98H25.6347V12.832H23.1147V17.98H20.5227V19.996H23.1147V29.284C23.1147 30.844 23.5107 32.08 24.3027 32.992C25.1187 33.904 26.3307 34.36 27.9387 34.36C30.6747 34.36 32.2827 32.8 32.7627 29.68ZM32.8414 41.668V0.987998H51.9574V41.668H44.2894V39.616H41.5534L43.7134 34L49.3654 20.032H51.2734V17.98H44.2174V20.032H46.8094L42.8134 30.796H42.5974L38.0974 20.032H40.9054V17.98H33.4894V20.032H35.3974L41.2294 33.964L39.1414 39.616H36.1534V41.668H32.8414ZM51.0875 41.668V0.987998H61.3835V41.668H51.0875ZM52.1675 34H60.3035V31.948H57.4955V9.232H52.1315V11.284H54.9755V31.948H52.1675V34ZM60.5094 41.668V0.987998H78.1494V41.668H60.5094ZM76.5294 29.392L74.4054 28.924C74.1654 29.908 73.6854 30.7 72.9654 31.3C72.2454 31.9 71.2494 32.2 69.9774 32.2C66.7374 32.2 65.0454 30.328 64.9014 26.584H76.1694C76.3134 25.936 76.3854 25.3 76.3854 24.676C76.3614 22.78 75.7734 21.136 74.6214 19.744C73.4694 18.352 71.7894 17.656 69.5814 17.656C67.3254 17.656 65.5374 18.46 64.2174 20.068C62.8974 21.676 62.2374 23.728 62.2374 26.224C62.2374 28.816 62.9334 30.82 64.3254 32.236C65.7174 33.652 67.5414 34.36 69.7974 34.36C71.7654 34.36 73.3254 33.88 74.4774 32.92C75.6294 31.936 76.3134 30.76 76.5294 29.392ZM73.7214 24.712H64.9374C65.1054 23.368 65.5374 22.204 66.2334 21.22C66.9294 20.236 68.0214 19.744 69.5094 19.744C71.0694 19.744 72.1854 20.272 72.8574 21.328C73.5534 22.384 73.8414 23.512 73.7214 24.712ZM77.2789 0.987998H104.315V41.668H77.2789V0.987998ZM93.0109 23.236H96.5389C96.2269 24.316 95.7589 25.408 95.1349 26.512C94.5109 27.616 93.7669 28.588 92.9029 29.428C90.4309 27.58 88.4509 25.276 86.9629 22.516C88.9549 21.532 90.7669 20.512 92.3989 19.456C94.0309 18.376 94.8469 16.924 94.8469 15.1C94.8469 13.636 94.3069 12.46 93.2269 11.572C92.1469 10.684 90.7669 10.24 89.0869 10.24C87.0469 10.24 85.4509 10.864 84.2989 12.112C83.1709 13.336 82.6069 14.884 82.6069 16.756C82.6069 18.412 83.0629 20.272 83.9749 22.336C82.7269 23.008 81.6349 23.812 80.6989 24.748C79.7869 25.66 79.3309 26.896 79.3309 28.456C79.3309 30.4 80.0269 31.876 81.4189 32.884C82.8349 33.868 84.4189 34.36 86.1709 34.36C87.2989 34.36 88.3789 34.168 89.4109 33.784C90.4669 33.376 91.4509 32.848 92.3629 32.2C93.3949 32.872 94.4629 33.4 95.5669 33.784C96.6949 34.168 97.8109 34.36 98.9149 34.36C100.307 34.36 101.603 34.024 102.803 33.352L102.191 31.156C101.255 31.66 100.283 31.912 99.2749 31.912C98.4829 31.912 97.6789 31.78 96.8629 31.516C96.0709 31.252 95.2909 30.892 94.5229 30.436C95.6509 29.332 96.6109 28.144 97.4029 26.872C98.2189 25.576 98.8549 24.364 99.3109 23.236H103.091V20.968H93.0109V23.236ZM85.1989 16.54C85.1989 15.34 85.5229 14.344 86.1709 13.552C86.8429 12.736 87.7909 12.328 89.0149 12.328C90.1189 12.328 90.9229 12.64 91.4269 13.264C91.9549 13.864 92.2189 14.512 92.2189 15.208C92.2189 16.504 91.6069 17.62 90.3829 18.556C89.1589 19.468 87.7909 20.32 86.2789 21.112C85.5589 19.456 85.1989 17.932 85.1989 16.54ZM86.8189 32.128C85.4989 32.128 84.3469 31.804 83.3629 31.156C82.4029 30.508 81.9229 29.476 81.9229 28.06C81.9229 27.076 82.1749 26.248 82.6789 25.576C83.1829 24.88 83.8429 24.268 84.6589 23.74C85.4029 25.084 86.2909 26.392 87.3229 27.664C88.3549 28.912 89.4709 30.016 90.6709 30.976C89.4469 31.744 88.1629 32.128 86.8189 32.128ZM103.435 41.668V0.987998H123.343V41.668H103.435ZM121.435 27.448C121.435 25.672 121.003 24.34 120.139 23.452C119.299 22.54 118.279 21.904 117.079 21.544C115.903 21.16 114.787 20.848 113.731 20.608C112.411 20.296 111.211 19.888 110.131 19.384C109.051 18.88 108.511 17.896 108.511 16.432C108.511 15.184 108.955 14.236 109.843 13.588C110.755 12.916 111.943 12.58 113.407 12.58C114.103 12.58 114.835 12.652 115.603 12.796C116.371 12.916 117.127 13.168 117.871 13.552L118.231 17.044L120.391 16.828L120.175 12.184C119.431 11.608 118.399 11.14 117.079 10.78C115.759 10.42 114.451 10.24 113.155 10.24C111.139 10.24 109.387 10.768 107.899 11.824C106.435 12.88 105.703 14.512 105.703 16.72C105.703 18.256 106.063 19.432 106.783 20.248C107.503 21.04 108.403 21.628 109.483 22.012C110.563 22.372 111.655 22.672 112.759 22.912C114.199 23.248 115.531 23.692 116.755 24.244C117.979 24.772 118.591 25.924 118.591 27.7C118.591 29.284 118.027 30.412 116.899 31.084C115.795 31.732 114.475 32.056 112.939 32.056C112.075 32.056 111.247 31.984 110.455 31.84C109.663 31.696 108.871 31.42 108.079 31.012L108.223 28.06L106.063 27.844L105.559 32.452C107.311 33.724 109.819 34.36 113.083 34.36C115.459 34.36 117.439 33.772 119.023 32.596C120.631 31.42 121.435 29.704 121.435 27.448ZM122.49 41.668V0.987998H136.566V41.668H122.49ZM135.63 29.68L133.686 29.068C133.446 30.364 133.098 31.204 132.642 31.588C132.21 31.972 131.694 32.164 131.094 32.164C130.11 32.164 129.426 31.876 129.042 31.3C128.682 30.7 128.502 29.92 128.502 28.96V19.996H134.766V17.98H128.502V12.832H125.982V17.98H123.39V19.996H125.982V29.284C125.982 30.844 126.378 32.08 127.17 32.992C127.986 33.904 129.198 34.36 130.806 34.36C133.542 34.36 135.15 32.8 135.63 29.68ZM135.709 41.668V0.987998H156.661V41.668H135.709ZM150.325 34H155.725V31.948H152.845V17.98H146.977V20.032H150.325V27.376C150.277 28.528 149.809 29.62 148.921 30.652C148.057 31.684 146.941 32.2 145.573 32.2C144.445 32.2 143.521 31.852 142.801 31.156C142.081 30.46 141.721 29.248 141.721 27.52V17.98H136.393V20.032H139.201V28.24C139.201 30.376 139.729 31.936 140.785 32.92C141.865 33.88 143.185 34.36 144.745 34.36C146.017 34.36 147.133 34.048 148.093 33.424C149.077 32.8 149.821 31.984 150.325 30.976V34ZM178.679 11.608V41.668H155.783V0.987998H178.679V9.268C178.295 9.1 177.887 8.992 177.455 8.944C177.047 8.896 176.603 8.872 176.123 8.872C174.155 8.872 172.631 9.676 171.551 11.284C170.975 10.78 170.243 10.312 169.355 9.88C168.467 9.448 167.399 9.232 166.151 9.232C164.423 9.232 162.935 9.808 161.687 10.96C160.463 12.112 159.851 13.648 159.851 15.568V17.98H157.547V20.032H159.851V31.948H157.079V34H166.043V31.948H162.407V20.032H170.507V31.948H167.699V34H176.663V31.948H173.027V20.032H177.203V17.98H173.027V14.848C173.027 12.328 174.011 11.068 175.979 11.068C176.531 11.068 177.011 11.116 177.419 11.212C177.851 11.308 178.271 11.44 178.679 11.608ZM162.407 17.98V15.46C162.407 14.092 162.803 13.048 163.595 12.328C164.411 11.608 165.395 11.248 166.547 11.248C167.387 11.248 168.155 11.416 168.851 11.752C169.547 12.088 170.183 12.52 170.759 13.048C170.591 13.624 170.507 14.272 170.507 14.992V17.98H162.407Z" fill="#242424"/>
</svg>
