<svg width="22" height="22" viewBox="0 0 22 22" fill="none" xmlns="http://www.w3.org/2000/svg">
<path d="M15.5865 1.02258C14.5607 1.02258 13.5803 1.25773 12.6726 1.72155C12.0547 2.03721 11.487 2.45662 11 2.95423C10.5129 2.45662 9.94532 2.03721 9.32741 1.72155C8.41965 1.25773 7.43927 1.02258 6.41348 1.02258C2.8771 1.02258 0 3.89968 0 7.43611C0 9.94088 1.32286 12.6012 3.93179 15.3431C6.1101 17.6325 8.77705 19.541 10.6307 20.7388L11 20.9774L11.3693 20.7388C13.223 19.541 15.8899 17.6325 18.0683 15.3431C20.6772 12.6012 22 9.94088 22 7.43611C22 3.89968 19.1229 1.02258 15.5865 1.02258ZM17.0824 14.4051C15.1356 16.4511 12.7642 18.1905 11 19.3547C9.23578 18.1905 6.86441 16.4511 4.91766 14.4051C2.55749 11.9247 1.36082 9.57995 1.36082 7.43611C1.36082 4.65004 3.62746 2.38341 6.41352 2.38341C8.01753 2.38341 9.49098 3.1202 10.456 4.40482L11 5.12901L11.544 4.40482C12.509 3.1202 13.9825 2.38341 15.5865 2.38341C18.3725 2.38341 20.6392 4.65004 20.6392 7.43611C20.6392 9.57995 19.4425 11.9247 17.0824 14.4051Z" fill="black"/>
</svg>
